<?xml version="1.0" encoding="UTF-8"?>
<svg version="1.1" height="100%" xmlns="http://www.w3.org/2000/svg" xmlns:xlink="http://www.w3.org/1999/xlink" width="100%" viewBox="0 0 400 400" xml:space="preserve">
  <g id="arrow">
    <path d="M6+282 C5+288+81+358 203+357 C290+352+362+312 355+302 C344+295+308+329 195+330 C73+328+12+274 6+282 Z" fill="#F9A31A"/>
    <path d="M319+288 C317+277+377+266 389+278 C396+297+370+345 361+341 C358+338+377+300 371+291 C364+282+320+291 319+288 Z" fill="#F9A31A"/>
  </g>
  <g id="letter">
    <path d="M109+106 C109+108+109+112 114+114 L157+117 C160+117+162+115 163+113 C164+106+170+85 196+85 C227+85+228+102 228+132 C203+136+106+128 102+212 C100+262+132+280 166+280 C206+280+223+262 237+249 C237+249+251+270 261+277 C264+279+267+279 270+277 L304+248C308+245+307+241 305+239 L294+224 C292+220+288+217 288+209 C288+209+288+123 288+112 C288+112+295+40 205+41 C110+42+109+106 109+106 Z M228+165 L228+196 C228+206+219+237 191+238 C182+238+164+234 164+207 C164+160+228+165 228+165 Z" fill="#231F20"/>
  </g>
</svg>
